:FULLY-SPECIFIED
:FORCE-ALL-JOINTS-BE-3DOF
:DEGREES
1529
root -5.59688 15.5916 20.664 576.298 -13.6439 560.933
lfemur -50.8417 12.0707 -27.5184
ltibia 88.1267 0 0
lfoot -11.1546 17.4195 0
ltoes -27.0496 0 0
rfemur -44.2693 -2.12794 17.345
rtibia 73.4336 0 0
rfoot -19.5097 -9.11153 0
rtoes -24.6552 0 0
lowerback 19.6606 0.133145 2.22172
upperback -1.2085 1.30655 3.43216
thorax -12.25 0.625075 2.09612
lowerneck -3.72722 8.178 3.70762
upperneck 3.79618 11.569 -10.7018
head 2.45165 5.63493 -3.31903
lclavicle -1.37737e-14 9.74308e-15 0
lhumerus 70.6597 -63.2372 37.6977
lradius 107.324 0 0
lwrist 10.6193 0 0
lhand -24.9534 37.875 0
lfingers 7.12502 0 0
lthumb 1.56766 -195.389 0
rclavicle -1.37737e-14 9.74308e-15 0
rhumerus -54.7178 53.9657 -90.1844
rradius 122.653 0 0
rwrist -51.2642 0 0
rhand 11.9392 -30.6113 0
rfingers 7.12502 0 0
rthumb 37.0229 -57.3123 0
1530
root -5.61381 15.6086 20.716 576.694 -16.0205 561.313
lfemur -50.5757 12.3297 -27.5325
ltibia 87.4245 0 0
lfoot -11.2794 17.1923 0
ltoes -27.4041 0 0
rfemur -44.4658 -2.47429 17.4092
rtibia 74.3056 0 0
rfoot -19.4399 -9.41298 0
rtoes -24.3913 0 0
lowerback 19.63 0.0564507 1.95409
upperback -1.20457 1.14038 3.45903
thorax -12.2123 0.561238 2.32253
lowerneck -3.79484 8.00724 3.58199
upperneck 3.77567 11.3394 -10.5794
head 2.42378 5.52024 -3.2692
lclavicle -1.31722e-14 9.63206e-15 0
lhumerus 69.827 -62.2951 38.4721
lradius 105.368 0 0
lwrist 9.86019 0 0
lhand -25.2297 37.5627 0
lfingers 7.12502 0 0
lthumb 1.30252 -186.891 0
rclavicle -1.31722e-14 9.63206e-15 0
rhumerus -55.9628 53.9559 -91.1343
rradius 123.974 0 0
rwrist -52.0235 0 0
rhand 12.4414 -30.2591 0
rfingers 7.12502 0 0
rthumb 37.5034 -56.8892 0
1531
root -5.62725 15.624 20.7591 576.839 -18.37 561.481
lfemur -50.2341 12.5762 -27.5216
ltibia 86.6368 0 0
lfoot -11.4082 16.9754 0
ltoes -27.771 0 0
rfemur -44.6931 -2.84299 17.4666
rtibia 75.1927 0 0
rfoot -19.3568 -9.72007 0
rtoes -24.0937 0 0
lowerback 19.5964 -0.0190807 1.67339
upperback -1.20084 0.972022 3.48147
thorax -12.1732 0.496951 2.55214
lowerneck -3.86715 7.8201 3.44302
upperneck 3.75614 11.0877 -10.4406
head 2.39609 5.39465 -3.21303
lclavicle -1.25633e-14 9.48172e-15 0
lhumerus 68.849 -61.2931 39.3261
lradius 103.371 0 0
lwrist 9.13173 0 0
lhand -25.5104 37.2501 0
lfingers 7.12502 0 0
lthumb 1.03309 -178.394 0
rclavicle -1.25633e-14 9.48172e-15 0
rhumerus -57.1062 53.8892 -92.0235
rradius 125.269 0 0
rwrist -52.7264 0 0
rhand 12.9119 -29.8955 0
rfingers 7.12502 0 0
rthumb 37.9533 -56.4573 0
1532
root -5.63794 15.6377 20.7938 576.757 -20.6934 561.442
lfemur -49.8198 12.8094 -27.4864
ltibia 85.7684 0 0
lfoot -11.541 16.7692 0
ltoes -28.1498 0 0
rfemur -44.9486 -3.23243 17.5171
rtibia 76.0913 0 0
rfoot -19.2607 -10.0307 0
rtoes -23.7638 0 0
lowerback 19.5598 -0.0931658 1.38049
upperback -1.19722 0.802095 3.49954
thorax -12.1327 0.432458 2.78436
lowerneck -3.94345 7.61685 3.29096
upperneck 3.73753 10.8143 -10.2857
head 2.36864 5.25834 -3.15064
lclavicle -1.1949e-14 9.29351e-15 0
lhumerus 67.7298 -60.2348 40.2562
lradius 101.339 0 0
lwrist 8.4354 0 0
lhand -25.7927 36.9387 0
lfingers 7.12502 0 0
lthumb 0.762197 -169.894 0
rclavicle -1.1949e-14 9.29351e-15 0
rhumerus -58.1475 53.7667 -92.8527
rradius 126.531 0 0
rwrist -53.3719 0 0
rhand 13.3503 -29.5228 0
rfingers 7.12502 0 0
rthumb 38.3723 -56.019 0
1533
root -5.64662 15.6497 20.8206 576.475 -22.9919 561.2
lfemur -49.3355 13.0284 -27.428
ltibia 84.8242 0 0
lfoot -11.6782 16.5737 0
ltoes -28.5397 0 0
rfemur -45.2302 -3.64103 17.5605
rtibia 76.9982 0 0
rfoot -19.1518 -10.3427 0
rtoes -23.403 0 0
lowerback 19.5201 -0.165521 1.07627
upperback -1.19364 0.631231 3.51328
thorax -12.0907 0.368006 3.01858
lowerneck -4.02303 7.39779 3.12606
upperneck 3.71982 10.5196 -10.1148
head 2.34152 5.11146 -3.08214
lclavicle -1.13315e-14 9.06889e-15 0
lhumerus 66.4733 -59.1233 41.259
lradius 99.2801 0 0
lwrist 7.77273 0 0
lhand -26.0735 36.6301 0
lfingers 7.12502 0 0
lthumb 0.492703 -161.392 0
rclavicle -1.13315e-14 9.06889e-15 0
rhumerus -59.0863 53.5892 -93.6225
rradius 127.754 0 0
rwrist -53.9589 0 0
rhand 13.7561 -29.143 0
rfingers 7.12502 0 0
rthumb 38.76 -55.5764 0
1534
root -5.65401 15.6603 20.84 576.018 -25.2668 560.759
lfemur -48.7843 13.2324 -27.3471
ltibia 83.8091 0 0
lfoot -11.82 16.3892 0
ltoes -28.9403 0 0
rfemur -45.5356 -4.06721 17.5967
rtibia 77.91 0 0
rfoot -19.0302 -10.6539 0
rtoes -23.0129 0 0
lowerback 19.4772 -0.235863 0.761612
upperback -1.19003 0.460058 3.52273
thorax -12.0472 0.30384 3.25419
lowerneck -4.1052 7.1632 2.94858
upperneck 3.70296 10.2037 -9.92819
head 2.3148 4.95419 -3.00765
lclavicle -1.0713e-14 8.80932e-15 0
lhumerus 65.0836 -57.9621 42.3309
lradius 97.1992 0 0
lwrist 7.14525 0 0
lhand -26.3499 36.3258 0
lfingers 7.12502 0 0
lthumb 0.227446 -152.886 0
rclavicle -1.0713e-14 8.80932e-15 0
rhumerus -59.9222 53.3577 -94.3338
rradius 128.933 0 0
rwrist -54.4864 0 0
rhand 14.1289 -28.7582 0
rfingers 7.12502 0 0
rthumb 39.116 -55.1317 0
